<svg width="44" height="44" viewBox="0 0 44 44" fill="none" xmlns="http://www.w3.org/2000/svg">
<g clip-path="url(#clip0_196_1903)">
<path d="M15.125 38.5001L19.25 34.3751V30.2501L23.375 26.1251L31.625 38.5001L35.75 34.3751L30.25 19.2501L35.9219 13.922C36.6968 13.147 37.1322 12.096 37.1322 11.0001C37.1322 9.90416 36.6968 8.85313 35.9219 8.0782C35.1469 7.30327 34.0959 6.86792 33 6.86792C31.9041 6.86792 30.8531 7.30327 30.0781 8.0782L24.75 13.7501L9.625 8.25008L5.5 12.3751L17.875 20.6251L13.75 24.7501H9.625L5.5 28.8751L12.375 31.6251L15.125 38.5001Z" stroke="#2D4051" stroke-width="2.75" stroke-linecap="round" stroke-linejoin="round"/>
</g>
<defs>
<clipPath id="clip0_196_1903">
<rect width="44" height="44" fill="white"/>
</clipPath>
</defs>
</svg>
