<svg width="44" height="44" viewBox="0 0 44 44" fill="none" xmlns="http://www.w3.org/2000/svg">
<g clip-path="url(#clip0_196_1880)">
<path d="M38.5 34.375V35.75C38.5 37.2087 37.9205 38.6076 36.8891 39.6391C35.8576 40.6705 34.4587 41.25 33 41.25H23.375" stroke="#2D4051" stroke-width="2.75" stroke-linecap="round" stroke-linejoin="round"/>
<path d="M38.5 22H33C32.2707 22 31.5712 22.2897 31.0555 22.8055C30.5397 23.3212 30.25 24.0207 30.25 24.75V31.625C30.25 32.3543 30.5397 33.0538 31.0555 33.5695C31.5712 34.0853 32.2707 34.375 33 34.375H38.5V22ZM38.5 22C38.5 19.8332 38.0732 17.6876 37.244 15.6857C36.4148 13.6839 35.1994 11.8649 33.6673 10.3327C32.1351 8.80057 30.3161 7.58519 28.3143 6.75599C26.3124 5.92679 24.1668 5.5 22 5.5C19.8332 5.5 17.6876 5.92679 15.6857 6.75599C13.6839 7.58519 11.8649 8.80057 10.3327 10.3327C8.80057 11.8649 7.58519 13.6839 6.75599 15.6857C5.92678 17.6876 5.5 19.8332 5.5 22M5.5 22V31.625C5.5 32.3543 5.78973 33.0538 6.30546 33.5695C6.82118 34.0853 7.52065 34.375 8.25 34.375H11C11.7293 34.375 12.4288 34.0853 12.9445 33.5695C13.4603 33.0538 13.75 32.3543 13.75 31.625V24.75C13.75 24.0207 13.4603 23.3212 12.9445 22.8055C12.4288 22.2897 11.7293 22 11 22H5.5Z" stroke="#2D4051" stroke-width="2.75" stroke-linecap="round" stroke-linejoin="round"/>
</g>
<defs>
<clipPath id="clip0_196_1880">
<rect width="44" height="44" fill="white"/>
</clipPath>
</defs>
</svg>
