<svg width="44" height="44" viewBox="0 0 44 44" fill="none" xmlns="http://www.w3.org/2000/svg">
<g clip-path="url(#clip0_196_1912)">
<path d="M37.1251 37.125H16.5001L6.96277 27.5876" stroke="#2D4051" stroke-width="2.75" stroke-linecap="round" stroke-linejoin="round"/>
<path d="M28.1875 15.8125L11.6875 32.3125" stroke="#2D4051" stroke-width="2.75" stroke-linecap="round" stroke-linejoin="round"/>
<path d="M16.5 37.1252H8.25C7.88533 37.1252 7.53559 36.9804 7.27773 36.7225C7.01987 36.4646 6.875 36.1149 6.875 35.7502V28.0691C6.87517 27.7049 7.01981 27.3557 7.27719 27.098L28.4728 5.90241C28.7307 5.64474 29.0803 5.5 29.4448 5.5C29.8093 5.5 30.1589 5.64474 30.4167 5.90241L38.0978 13.5783C38.3555 13.8362 38.5002 14.1858 38.5002 14.5503C38.5002 14.9148 38.3555 15.2644 38.0978 15.5223L16.5 37.1252Z" stroke="#2D4051" stroke-width="2.75" stroke-linecap="round" stroke-linejoin="round"/>
<path d="M23.375 11L33 20.625" stroke="#2D4051" stroke-width="2.75" stroke-linecap="round" stroke-linejoin="round"/>
</g>
<defs>
<clipPath id="clip0_196_1912">
<rect width="44" height="44" fill="white"/>
</clipPath>
</defs>
</svg>
