<svg width="44" height="44" viewBox="0 0 44 44" fill="none" xmlns="http://www.w3.org/2000/svg">
<g clip-path="url(#clip0_196_1892)">
<path d="M33 34.375V38.5" stroke="#2D4051" stroke-width="2.75" stroke-linecap="round" stroke-linejoin="round"/>
<path d="M11 34.375V38.5" stroke="#2D4051" stroke-width="2.75" stroke-linecap="round" stroke-linejoin="round"/>
<path d="M37.125 8.25H6.875C6.11561 8.25 5.5 8.86561 5.5 9.625V33C5.5 33.7594 6.11561 34.375 6.875 34.375H37.125C37.8844 34.375 38.5 33.7594 38.5 33V9.625C38.5 8.86561 37.8844 8.25 37.125 8.25Z" stroke="#2D4051" stroke-width="2.75" stroke-linecap="round" stroke-linejoin="round"/>
<path d="M26.125 24.75C27.6438 24.75 28.875 23.5188 28.875 22C28.875 20.4812 27.6438 19.25 26.125 19.25C24.6062 19.25 23.375 20.4812 23.375 22C23.375 23.5188 24.6062 24.75 26.125 24.75Z" fill="#2D4051"/>
<path d="M26.125 22H38.5" stroke="#2D4051" stroke-width="2.75" stroke-linecap="round" stroke-linejoin="round"/>
<path d="M26.125 28.875C29.922 28.875 33 25.797 33 22C33 18.203 29.922 15.125 26.125 15.125C22.328 15.125 19.25 18.203 19.25 22C19.25 25.797 22.328 28.875 26.125 28.875Z" stroke="#2D4051" stroke-width="2.75" stroke-linecap="round" stroke-linejoin="round"/>
</g>
<defs>
<clipPath id="clip0_196_1892">
<rect width="44" height="44" fill="white"/>
</clipPath>
</defs>
</svg>
