<svg width="241" height="30" viewBox="0 0 241 30" fill="none" xmlns="http://www.w3.org/2000/svg">
<path d="M223.129 5.16881V1.36206H240.172V5.16881H233.711V25.809H229.555V5.16881H223.129Z" fill="#D9FF00"/>
<path d="M205.523 13.5855C205.523 15.3084 205.907 16.8218 206.675 18.1256C207.467 19.4294 208.491 20.4423 209.749 21.164C211.029 21.8625 212.415 22.2118 213.905 22.2118C215.069 22.2118 216.116 22.0604 217.048 21.7577C217.979 21.4551 218.817 21.0476 219.562 20.5354C220.331 19.9999 220.994 19.4062 221.553 18.7542V23.6436C220.529 24.4818 219.423 25.1221 218.235 25.5645C217.048 26.0069 215.558 26.228 213.765 26.228C211.972 26.228 210.296 25.9254 208.736 25.32C207.199 24.7147 205.86 23.8415 204.72 22.7007C203.579 21.5598 202.682 20.2211 202.03 18.6844C201.402 17.1244 201.087 15.4248 201.087 13.5855C201.087 11.7461 201.402 10.0581 202.03 8.52144C202.682 6.96149 203.579 5.61108 204.72 4.47022C205.86 3.32936 207.199 2.45626 208.736 1.8509C210.296 1.24555 211.972 0.942871 213.765 0.942871C215.558 0.942871 217.048 1.16406 218.235 1.60643C219.423 2.04881 220.529 2.68908 221.553 3.52727V8.41666C220.994 7.76474 220.331 7.18267 219.562 6.67045C218.817 6.13494 217.979 5.71585 217.048 5.41318C216.116 5.1105 215.069 4.95916 213.905 4.95916C212.415 4.95916 211.029 5.32005 209.749 6.04181C208.491 6.7403 207.467 7.74146 206.675 9.0453C205.907 10.3259 205.523 11.8392 205.523 13.5855Z" fill="#D9FF00"/>
<path d="M196.889 5.79738L175.166 27.0313L175.34 21.3736L197.063 0.139648L196.889 5.79738ZM179.217 1.362V22.4213L175.166 27.0313V1.362H179.217ZM197.063 0.139648V25.809H193.012V4.85442L197.063 0.139648Z" fill="#D9FF00"/>
<path d="M169.643 1.36206V25.809H165.452V5.16881H155.709V16.6589C155.709 18.4517 155.441 20.0465 154.905 21.4435C154.37 22.8172 153.543 23.8882 152.426 24.6565C151.331 25.4249 149.934 25.809 148.235 25.809V22.2817C148.794 22.2817 149.282 22.142 149.702 21.8626C150.121 21.5599 150.47 21.1525 150.749 20.6403C151.052 20.1048 151.273 19.4761 151.413 18.7543C151.576 18.0326 151.657 17.241 151.657 16.3795V1.36206H169.643Z" fill="#D9FF00"/>
<path d="M129.43 19.5227L130.199 16.0302H141.549L142.352 19.5227H129.43ZM135.822 8.27705L131.98 17.2526L131.91 18.1606L128.522 25.809H123.877L135.822 0L147.766 25.809H143.121L139.803 18.3702L139.698 17.3574L135.822 8.27705Z" fill="#D9FF00"/>
<path d="M120.901 5.79738L99.1781 27.0313L99.3527 21.3736L121.076 0.139648L120.901 5.79738ZM103.229 1.362V22.4213L99.1781 27.0313V1.362H103.229ZM121.076 0.139648V25.809H117.024V4.85442L121.076 0.139648Z" fill="#D9FF00"/>
<path d="M75.4015 22.0023H87.6599V1.36206H91.8159V22.0023H95.1337V30H91.292V25.8091H71.2455V1.36206H75.4015V22.0023Z" fill="#D9FF00"/>
<path d="M53.8431 25.809V22.1769H66.1713V25.809H53.8431ZM53.8431 4.99419V1.36206H66.1713V4.99419H53.8431ZM53.8431 14.4936V10.9313H65.4728V14.4936H53.8431ZM51.2936 1.36206H55.3448V25.809H51.2936V1.36206Z" fill="#D9FF00"/>
<path d="M41.609 5.16881H29.8046V25.809H25.6136V1.36206H45.765V25.809H41.609V5.16881Z" fill="#D9FF00"/>
<path d="M4.43538 13.6426C4.43538 15.3655 4.81955 16.8789 5.58788 18.1827C6.3795 19.4866 7.40394 20.4994 8.66122 21.2211C9.94178 21.9196 11.3271 22.2689 12.8172 22.2689C13.9813 22.2689 15.0291 22.1175 15.9604 21.8149C16.8917 21.5122 17.7299 21.1047 18.4749 20.5925C19.2433 20.057 19.9068 19.4633 20.4656 18.8114V23.7008C19.4412 24.539 18.3352 25.1792 17.1478 25.6216C15.9604 26.064 14.4703 26.2852 12.6775 26.2852C10.8847 26.2852 9.20836 25.9825 7.64841 25.3771C6.11175 24.7718 4.77298 23.8987 3.63212 22.7578C2.49126 21.617 1.59487 20.2782 0.942955 18.7415C0.314318 17.1816 0 15.4819 0 13.6426C0 11.8032 0.314318 10.1152 0.942955 8.57857C1.59487 7.01862 2.49126 5.66821 3.63212 4.52735C4.77298 3.38649 6.11175 2.51338 7.64841 1.90803C9.20836 1.30268 10.8847 1 12.6775 1C14.4703 1 15.9604 1.22119 17.1478 1.66356C18.3352 2.10593 19.4412 2.74621 20.4656 3.5844V8.47379C19.9068 7.82187 19.2433 7.2398 18.4749 6.72758C17.7299 6.19207 16.8917 5.77298 15.9604 5.4703C15.0291 5.16763 13.9813 5.01629 12.8172 5.01629C11.3271 5.01629 9.94178 5.37717 8.66122 6.09894C7.40394 6.79743 6.3795 7.79859 5.58788 9.10243C4.81955 10.383 4.43538 11.8964 4.43538 13.6426Z" fill="#D9FF00"/>
<circle cx="13.5" cy="13.5" r="4.5" fill="#D9FF00"/>
</svg>
