<svg width="16" height="16" viewBox="0 0 16 16" fill="none" xmlns="http://www.w3.org/2000/svg">
<g clip-path="url(#clip0_52_130)">
<path d="M8.00011 11.8182L11.4201 13.9213C11.5088 13.9752 11.6116 14.0015 11.7153 13.997C11.819 13.9925 11.919 13.9574 12.0028 13.8961C12.0865 13.8347 12.1502 13.7499 12.1858 13.6524C12.2213 13.5549 12.2272 13.449 12.2026 13.3482L11.2726 9.42379L14.3164 6.79879C14.394 6.73064 14.4499 6.64127 14.4773 6.54169C14.5047 6.44211 14.5023 6.3367 14.4705 6.23845C14.4386 6.14021 14.3787 6.05344 14.2981 5.98885C14.2175 5.92427 14.1198 5.8847 14.017 5.87504L10.0226 5.55004L8.48386 1.82504C8.44463 1.72893 8.37767 1.6467 8.29151 1.58881C8.20536 1.53092 8.10391 1.5 8.00011 1.5C7.89631 1.5 7.79486 1.53092 7.70871 1.58881C7.62255 1.6467 7.55559 1.72893 7.51636 1.82504L5.97761 5.55004L1.98323 5.87504C1.87971 5.88413 1.78116 5.92352 1.6999 5.98829C1.61864 6.05307 1.55827 6.14035 1.52633 6.23924C1.49439 6.33813 1.49229 6.44424 1.52031 6.54431C1.54833 6.64439 1.60521 6.73398 1.68386 6.80191L4.72761 9.42691L3.79761 13.3482C3.77302 13.449 3.77889 13.5549 3.81446 13.6524C3.85003 13.7499 3.91371 13.8347 3.99745 13.8961C4.0812 13.9574 4.18125 13.9925 4.28496 13.997C4.38866 14.0015 4.49137 13.9752 4.58011 13.9213L8.00011 11.8182Z" fill="#FF9500"/>
</g>
<defs>
<clipPath id="clip0_52_130">
<rect width="16" height="16" fill="white"/>
</clipPath>
</defs>
</svg>
