<svg width="16" height="16" viewBox="0 0 16 16" fill="none" xmlns="http://www.w3.org/2000/svg">
<g clip-path="url(#clip0_38_310)">
<path d="M10.2744 9.08398C10.3436 9.0379 10.4233 9.00983 10.5061 9.0023C10.5889 8.99477 10.6723 9.00802 10.7488 9.04085L13.6963 10.3615C13.7956 10.4039 13.8785 10.4774 13.9326 10.5709C13.9867 10.6644 14.009 10.773 13.9963 10.8802C13.8991 11.6059 13.5418 12.2716 12.9907 12.7535C12.4395 13.2354 11.7321 13.5008 11 13.5002C8.74566 13.5002 6.58365 12.6047 4.98959 11.0106C3.39553 9.41658 2.5 7.25457 2.5 5.00023C2.49944 4.26811 2.7648 3.5607 3.24673 3.00956C3.72865 2.45843 4.39435 2.10108 5.12 2.00398C5.22727 1.99124 5.33578 2.01358 5.4293 2.06766C5.52281 2.12174 5.5963 2.20465 5.63875 2.30398L6.95938 5.25398C6.99182 5.32975 7.00504 5.41236 6.99784 5.49447C6.99064 5.57658 6.96326 5.65564 6.91813 5.7246L5.5825 7.31273C5.53512 7.38422 5.50711 7.46678 5.50119 7.55234C5.49528 7.6379 5.51166 7.72353 5.54875 7.80086C6.06563 8.85898 7.15938 9.9396 8.22063 10.4515C8.29836 10.4884 8.38439 10.5044 8.47021 10.498C8.55602 10.4915 8.63867 10.4628 8.71 10.4146L10.2744 9.08398Z" stroke="white" stroke-width="1.5" stroke-linecap="round" stroke-linejoin="round"/>
</g>
<defs>
<clipPath id="clip0_38_310">
<rect width="16" height="16" fill="white"/>
</clipPath>
</defs>
</svg>
