<svg width="16" height="16" viewBox="0 0 16 16" fill="none" xmlns="http://www.w3.org/2000/svg">
<g clip-path="url(#clip0_5_148)">
<path d="M5 8.42929L10.6412 13.3749C10.7062 13.4322 10.785 13.4717 10.8698 13.4894C10.9547 13.5071 11.0426 13.5025 11.1251 13.476C11.2076 13.4494 11.2818 13.4019 11.3404 13.3381C11.399 13.2742 11.44 13.1963 11.4594 13.1118L14 2.07617C14.0025 2.0651 14.0019 2.05357 13.9983 2.04281C13.9948 2.03204 13.9883 2.02246 13.9797 2.01507C13.9711 2.00769 13.9607 2.00278 13.9495 2.00088C13.9383 1.99898 13.9268 2.00016 13.9162 2.00429L1.25 6.96117C1.17137 6.99143 1.10467 7.04639 1.05993 7.11778C1.01519 7.18917 0.994808 7.27315 1.00185 7.35711C1.0089 7.44107 1.04298 7.52048 1.09899 7.58342C1.15501 7.64635 1.22992 7.68943 1.3125 7.70617L5 8.42929Z" stroke="#2D4051" stroke-width="1.5" stroke-linecap="round" stroke-linejoin="round"/>
<path d="M5 8.42937L13.9631 2.00562" stroke="#2D4051" stroke-width="1.5" stroke-linecap="round" stroke-linejoin="round"/>
<path d="M7.77313 10.8613L5.86 12.8463C5.79087 12.918 5.7019 12.9675 5.60448 12.9883C5.50707 13.0091 5.40566 13.0004 5.31326 12.9632C5.22085 12.9259 5.14167 12.862 5.08586 12.7795C5.03004 12.697 5.00015 12.5997 5 12.5001V8.42944" stroke="#2D4051" stroke-width="1.5" stroke-linecap="round" stroke-linejoin="round"/>
</g>
<defs>
<clipPath id="clip0_5_148">
<rect width="16" height="16" fill="white"/>
</clipPath>
</defs>
</svg>
